<?xml version="1.0" encoding="UTF-8" standalone="no"?>
<!-- Created with Inkscape (http://www.inkscape.org/) -->

<svg
   xmlns:svg="http://www.w3.org/2000/svg"
   xmlns="http://www.w3.org/2000/svg"
   version="1.2"
   width="294.84201"
   height="255.569"
   viewBox="0 0 294.842 255.569"
   id="Layer_1"
   xml:space="preserve"
   style="overflow:inherit"><defs
   id="defs9" />
<path
   d="m 257.403,127.645 c 5.333,4.634 9.916,8.684 13.75,12.15 3.833,3.467 6.8,6.184 8.899,8.149 2.067,1.967 3.117,3.017 3.15,3.15 l 4.65,5.8 c 0.433,0.334 0.883,0.634 1.35,0.9 0.467,0.233 0.95,0.467 1.45,0.7 0.467,0.233 0.899,0.517 1.3,0.85 0.4,0.3 0.767,0.717 1.1,1.25 0.367,0.634 0.601,1.3 0.7,2 0.101,0.634 0.117,1.283 0.05,1.95 -0.133,0.633 -0.3,1.25 -0.5,1.85 -0.267,0.634 -0.55,1.134 -0.85,1.5 -0.333,0.334 -0.684,0.55 -1.05,0.65 -0.367,0.066 -0.8,0.066 -1.3,0 -0.534,-0.101 -1.134,-0.25 -1.801,-0.45 -0.733,-0.233 -1.283,-0.45 -1.649,-0.65 -0.4,-0.233 -0.717,-0.5 -0.95,-0.8 -0.233,-0.3 -0.417,-0.649 -0.55,-1.05 -0.167,-0.434 -0.367,-0.934 -0.601,-1.5 -0.6,-1.5 -1.566,-2.767 -2.899,-3.8 -1.367,-1 -2.967,-1.4 -4.8,-1.2 -0.667,0.134 -2.25,-0.517 -4.75,-1.95 -2.467,-1.434 -5.584,-3.416 -9.351,-5.95 -3.767,-2.533 -7.883,-5.399 -12.35,-8.6 -4.5,-3.233 -9.084,-6.566 -13.75,-10 -4.7,-3.467 -9.2,-6.816 -13.5,-10.05 -4.367,-3.267 -8.267,-6.217 -11.7,-8.851 -3.434,-2.633 -6.15,-4.716 -8.15,-6.25 -2.033,-1.533 -3.066,-2.316 -3.1,-2.35 -6.2,-4.634 -12.667,-9.134 -19.4,-13.5 -4.797,-3.096 -9.622,-6.087 -14.475,-8.975 -0.12,0.098 -0.912,0.723 -2.375,1.875 -1.567,1.199 -3.683,2.866 -6.35,5 -2.667,2.133 -5.65,4.55 -8.95,7.25 -3.333,2.699 -6.784,5.533 -10.35,8.5 -3.6,2.966 -7.083,5.916 -10.45,8.85 -3.4,2.934 -6.483,5.7 -9.25,8.3 -2.8,2.566 -5.066,4.8 -6.8,6.7 -1.767,1.934 -2.767,3.408 -3,4.425 1.888,-0.756 3.671,-1.514 5.35,-2.274 2.133,-1 4.066,-1.934 5.8,-2.801 1.7,-0.866 3.167,-1.649 4.4,-2.35 1.233,-0.667 2.184,-1.2 2.85,-1.6 0.633,-0.4 0.967,-0.601 1,-0.601 8.967,-5 17.367,-8.616 25.2,-10.85 7.767,-2.233 14.966,-3.417 21.6,-3.55 6.633,-0.101 12.684,0.55 18.15,1.949 5.467,1.4 10.366,3.284 14.7,5.65 4.333,2.333 8.116,4.833 11.35,7.5 3.2,2.667 5.866,5.2 8,7.6 2.1,2.367 3.684,4.317 4.75,5.851 1.033,1.533 1.55,2.333 1.55,2.399 5.267,8 9.101,15.584 11.5,22.75 2.4,7.134 3.667,13.834 3.8,20.101 0.134,6.267 -0.533,12.083 -2,17.45 -1.5,5.3 -3.483,10.133 -5.949,14.5 -2.467,4.366 -5.117,8.216 -7.95,11.55 -2.834,3.333 -5.5,6.133 -8,8.399 -2.533,2.267 -4.601,3.983 -6.2,5.15 -1.634,1.167 -2.467,1.75 -2.5,1.75 -2.667,0.967 -5.184,1.983 -7.55,3.05 -2.367,1 -4.65,1.983 -6.851,2.95 -2.233,0.967 -4.416,1.833 -6.55,2.6 -2.166,0.767 -4.35,1.367 -6.55,1.801 -6.1,1.1 -11.817,1.767 -17.15,2 -5.367,0.199 -10.383,0 -15.05,-0.601 -4.7,-0.6 -9.066,-1.55 -13.1,-2.85 -4.067,-1.3 -7.817,-2.884 -11.25,-4.75 -3.467,-1.867 -6.667,-3.967 -9.6,-6.3 -2.9,-2.367 -5.567,-4.884 -8,-7.551 -2.434,-2.699 -4.633,-5.517 -6.6,-8.449 -1.967,-2.967 -3.733,-5.967 -5.3,-9 -1.6,-3.101 -3,-6.184 -4.2,-9.25 -1.2,-3.067 -2.25,-6.101 -3.15,-9.101 -0.9,-2.967 -1.667,-5.833 -2.3,-8.6 -0.667,-2.8 -1.2,-5.417 -1.6,-7.851 -0.434,-2.433 -0.767,-4.649 -1,-6.649 -0.233,-2.033 -0.417,-3.767 -0.55,-5.2 -0.1,-1.467 -0.167,-2.583 -0.2,-3.35 l -0.05,-1.2 c -1.954,0.183 -3.871,0.299 -5.75,0.35 -7.433,0.167 -14.283,-0.45 -20.55,-1.85 -6.267,-1.434 -11.967,-3.384 -17.1,-5.851 -5.133,-2.466 -9.717,-5.199 -13.75,-8.199 -4.067,-3.034 -7.583,-6.084 -10.55,-9.15 -3,-3.066 -5.467,-5.866 -7.4,-8.4 -1.966,-2.6 -3.433,-4.666 -4.4,-6.199 -0.967,-1.567 -1.433,-2.367 -1.4,-2.4 -2.067,-6 -3.7,-11.65 -4.9,-16.95 -1.2,-5.333 -2,-10.366 -2.4,-15.1 -0.434,-4.733 -0.517,-9.167 -0.25,-13.3 0.233,-4.167 0.767,-8.051 1.6,-11.65 0.833,-3.634 1.9,-7.017 3.2,-10.15 1.267,-3.133 2.733,-6.033 4.4,-8.699 1.667,-2.667 3.483,-5.117 5.45,-7.351 1.933,-2.233 3.967,-4.283 6.1,-6.149 2.1,-1.834 4.267,-3.5 6.5,-5 2.2,-1.5 4.383,-2.834 6.55,-4 2.2,-1.167 4.333,-2.2 6.4,-3.101 2.033,-0.899 3.983,-1.666 5.85,-2.3 1.833,-0.634 3.533,-1.15 5.1,-1.55 1.533,-0.434 2.867,-0.783 4,-1.05 1.1,-0.233 1.967,-0.4 2.6,-0.5 0.6,-0.134 0.917,-0.184 0.95,-0.15 5.4,-1.033 11.4,-1.033 18,0 6.567,1 13.583,2.866 21.05,5.6 7.433,2.7 15.15,6.084 23.15,10.15 8.033,4.066 16.2,8.616 24.5,13.65 7.72,4.7 15.454,9.675 23.2,14.925 0.874,-0.509 2.023,-1.417 3.45,-2.726 1.567,-1.433 3.383,-3.25 5.45,-5.449 2.033,-2.2 4.25,-4.634 6.649,-7.301 2.367,-2.699 4.817,-5.517 7.351,-8.449 2.533,-2.934 5.066,-5.851 7.6,-8.75 2.5,-2.934 4.917,-5.717 7.25,-8.351 2.334,-2.666 4.5,-5.083 6.5,-7.25 1.967,-2.133 3.7,-3.899 5.2,-5.3 1.434,-1.366 2.6,-2.4 3.5,-3.1 0.833,-0.767 1.467,-1.267 1.9,-1.5 0.399,-0.233 0.616,-0.301 0.649,-0.2 0.066,0.1 0,0.333 -0.2,0.7 -0.199,0.366 -0.449,0.783 -0.75,1.25 -0.3,0.433 -0.616,0.883 -0.949,1.35 -0.334,0.4 -0.601,0.75 -0.801,1.05 l -0.35,0.45 c -0.033,0.033 -0.6,0.95 -1.7,2.75 -1.1,1.767 -2.583,4.15 -4.45,7.15 -1.899,3 -4.033,6.366 -6.399,10.1 -2.367,3.7 -4.834,7.517 -7.4,11.45 -2.566,3.933 -5.066,7.733 -7.5,11.399 -2.467,3.634 -4.733,6.884 -6.8,9.75 -2.033,2.867 -3.733,5.084 -5.1,6.65 -0.941,1.078 -1.632,1.729 -2.075,1.95 5.068,3.594 10.076,7.244 15.024,10.95 7.967,5.933 15.65,11.833 23.051,17.699 7.399,5.834 14.35,11.467 20.85,16.9 6.468,5.407 12.368,10.424 17.702,15.057 z M 89.553,139.52 c 1,-3.184 2.683,-6.475 5.05,-9.875 2.333,-3.434 5.133,-6.934 8.4,-10.5 3.233,-3.566 6.717,-7.1 10.45,-10.6 3.733,-3.533 7.517,-6.934 11.35,-10.2 3.8,-3.267 7.45,-6.283 10.95,-9.05 3.467,-2.767 6.583,-5.184 9.35,-7.25 2.733,-2.066 4.9,-3.684 6.5,-4.851 1.382,-1.029 2.183,-1.604 2.4,-1.725 2.103,1.186 4.219,2.394 6.35,3.625 1.999,1.154 3.991,2.33 5.975,3.525 -1.984,-1.195 -3.976,-2.371 -5.975,-3.525 -2.131,-1.231 -4.248,-2.439 -6.35,-3.625 -4.681,-2.636 -9.298,-5.161 -13.85,-7.575 -6.633,-3.533 -12.917,-6.75 -18.85,-9.649 -5.934,-2.967 -11.333,-5.567 -16.2,-7.801 -4.833,-2.267 -8.933,-4.133 -12.3,-5.6 -0.934,-0.434 -1.867,-0.816 -2.8,-1.15 -0.933,-0.366 -1.867,-0.716 -2.8,-1.05 -0.9,-0.3 -1.767,-0.583 -2.6,-0.85 -0.867,-0.267 -1.65,-0.483 -2.35,-0.65 -0.7,-0.2 -1.316,-0.35 -1.85,-0.45 -0.5,-0.1 -0.883,-0.166 -1.15,-0.199 -7.367,-0.667 -13.8,-0.467 -19.3,0.6 -5.533,1.033 -10.25,2.717 -14.15,5.05 -3.934,2.3 -7.184,5 -9.75,8.101 -2.6,3.1 -4.667,6.366 -6.2,9.8 -1.533,3.399 -2.667,6.733 -3.4,10 -0.733,3.267 -1.2,6.233 -1.4,8.899 -0.233,2.667 -0.333,4.801 -0.3,6.4 0.034,1.566 0.067,2.366 0.1,2.4 0.934,5.5 2.15,10.449 3.65,14.85 1.467,4.4 3.167,8.316 5.1,11.75 1.934,3.434 4.067,6.434 6.4,9 2.3,2.533 4.75,4.7 7.35,6.5 2.6,1.767 5.317,3.2 8.15,4.3 2.833,1.066 5.733,1.867 8.7,2.4 2.933,0.5 5.917,0.75 8.95,0.75 3,0 6.017,-0.184 9.05,-0.55 2.461,-0.305 4.91,-0.713 7.35,-1.225 0.5,-0.103 1,-0.211 1.5,-0.325 2.867,-0.699 5.667,-1.466 8.4,-2.3 2.733,-0.899 5.333,-1.816 7.8,-2.75 0.525,-0.206 1.042,-0.414 1.55,-0.625 -0.508,0.211 -1.025,0.419 -1.55,0.625 -2.466,0.934 -5.066,1.851 -7.8,2.75 -2.733,0.834 -5.533,1.601 -8.4,2.3 -0.5,0.114 -1,0.222 -1.5,0.325 z m 79.9,-79.925 c 0.098,-0.051 0.198,-0.108 0.3,-0.175 -0.103,0.066 -0.203,0.124 -0.3,0.175 z m 11.325,7.45 c -0.213,0.105 -0.371,0.123 -0.475,0.05 0.104,0.073 0.262,0.055 0.475,-0.05 -3.105,-2.187 -6.23,-4.354 -9.375,-6.5 -0.549,-0.375 -1.099,-0.75 -1.65,-1.125 0.552,0.375 1.102,0.75 1.65,1.125 3.144,2.146 6.269,4.313 9.375,6.5 z m -74.925,93.925 c -5.677,1.401 -11.093,2.343 -16.25,2.825 5.156,-0.483 10.573,-1.424 16.25,-2.825 z m 0.05,19.224 c 0.367,2.767 0.867,5.317 1.5,7.65 0.633,2.3 1.333,4.384 2.1,6.25 0.733,1.866 1.483,3.517 2.25,4.95 0.733,1.399 1.417,2.566 2.05,3.5 0.6,0.967 1.083,1.684 1.45,2.149 0.367,0.467 0.567,0.7 0.6,0.7 5.567,6.3 11.05,11.4 16.45,15.3 5.367,3.9 10.55,6.817 15.55,8.75 5.033,1.967 9.817,3.184 14.35,3.65 4.5,0.467 8.7,0.434 12.6,-0.1 3.9,-0.567 7.417,-1.4 10.55,-2.5 3.133,-1.101 5.816,-2.25 8.05,-3.45 2.233,-1.233 3.95,-2.283 5.149,-3.15 1.167,-0.866 1.767,-1.3 1.801,-1.3 5.666,-4.634 10.133,-9.25 13.399,-13.85 3.267,-4.634 5.566,-9.2 6.9,-13.7 1.3,-4.5 1.899,-8.834 1.8,-13 -0.134,-4.167 -0.75,-8.101 -1.85,-11.8 -1.067,-3.7 -2.384,-7.067 -3.95,-10.101 -1.566,-3.034 -3.117,-5.649 -4.65,-7.85 -1.566,-2.2 -2.85,-3.884 -3.85,-5.05 -1.066,-1.2 -1.617,-1.817 -1.65,-1.851 l -0.85,-0.85 c -0.601,-0.566 -1.45,-1.283 -2.55,-2.15 -1.134,-0.899 -2.517,-1.866 -4.15,-2.899 -1.667,-1 -3.566,-1.967 -5.7,-2.9 -2.166,-0.934 -4.55,-1.717 -7.149,-2.35 -2.601,-0.634 -5.434,-1.017 -8.5,-1.15 -3.066,-0.134 -6.316,0.1 -9.75,0.7 -3.5,0.566 -7.167,1.6 -11,3.1 l -24.15,14.2 c -8.767,4.167 -17.033,7.283 -24.8,9.35 -0.688,0.182 -1.372,0.356 -2.05,0.525 -0.466,3.624 -0.667,7.049 -0.6,10.275 0.033,3.202 0.249,6.186 0.65,8.952 z"
   id="path3"
   style="fill:#020202;fill-rule:evenodd" />
<path
   d="m 257.403,127.645 c 5.333,4.634 9.916,8.684 13.75,12.15 3.833,3.467 6.8,6.184 8.899,8.149 2.067,1.967 3.117,3.017 3.15,3.15 l 4.65,5.8 c 0.433,0.334 0.883,0.634 1.35,0.9 0.467,0.233 0.95,0.467 1.45,0.7 0.467,0.233 0.899,0.517 1.3,0.85 0.4,0.3 0.767,0.717 1.1,1.25 0.367,0.634 0.601,1.3 0.7,2 0.101,0.634 0.117,1.283 0.05,1.95 -0.133,0.633 -0.3,1.25 -0.5,1.85 -0.267,0.634 -0.55,1.134 -0.85,1.5 -0.333,0.334 -0.684,0.55 -1.05,0.65 -0.367,0.066 -0.8,0.066 -1.3,0 -0.534,-0.101 -1.134,-0.25 -1.801,-0.45 -0.733,-0.233 -1.283,-0.45 -1.649,-0.65 -0.4,-0.233 -0.717,-0.5 -0.95,-0.8 -0.233,-0.3 -0.417,-0.649 -0.55,-1.05 -0.167,-0.434 -0.367,-0.934 -0.601,-1.5 -0.6,-1.5 -1.566,-2.767 -2.899,-3.8 -1.367,-1 -2.967,-1.4 -4.8,-1.2 -0.667,0.134 -2.25,-0.517 -4.75,-1.95 -2.467,-1.434 -5.584,-3.416 -9.351,-5.95 -3.767,-2.533 -7.883,-5.399 -12.35,-8.6 -4.5,-3.233 -9.084,-6.566 -13.75,-10 -4.7,-3.467 -9.2,-6.816 -13.5,-10.05 -4.367,-3.267 -8.267,-6.217 -11.7,-8.851 -3.434,-2.633 -6.15,-4.716 -8.15,-6.25 -2.033,-1.533 -3.066,-2.316 -3.1,-2.35 -6.2,-4.634 -12.667,-9.134 -19.4,-13.5 -4.797,-3.096 -9.622,-6.087 -14.475,-8.975 -0.12,0.098 -0.912,0.723 -2.375,1.875 -1.567,1.199 -3.683,2.866 -6.35,5 -2.667,2.133 -5.65,4.55 -8.95,7.25 -3.333,2.699 -6.784,5.533 -10.35,8.5 -3.6,2.966 -7.083,5.916 -10.45,8.85 -3.4,2.934 -6.483,5.7 -9.25,8.3 -2.8,2.566 -5.066,4.8 -6.8,6.7 -1.767,1.934 -2.767,3.408 -3,4.425 1.888,-0.756 3.671,-1.514 5.35,-2.274 2.133,-1 4.066,-1.934 5.8,-2.801 1.7,-0.866 3.167,-1.649 4.4,-2.35 1.233,-0.667 2.184,-1.2 2.85,-1.6 0.633,-0.4 0.967,-0.601 1,-0.601 8.967,-5 17.367,-8.616 25.2,-10.85 7.767,-2.233 14.966,-3.417 21.6,-3.55 6.633,-0.101 12.684,0.55 18.15,1.949 5.467,1.4 10.366,3.284 14.7,5.65 4.333,2.333 8.116,4.833 11.35,7.5 3.2,2.667 5.866,5.2 8,7.6 2.1,2.367 3.684,4.317 4.75,5.851 1.033,1.533 1.55,2.333 1.55,2.399 5.267,8 9.101,15.584 11.5,22.75 2.4,7.134 3.667,13.834 3.8,20.101 0.134,6.267 -0.533,12.083 -2,17.45 -1.5,5.3 -3.483,10.133 -5.949,14.5 -2.467,4.366 -5.117,8.216 -7.95,11.55 -2.834,3.333 -5.5,6.133 -8,8.399 -2.533,2.267 -4.601,3.983 -6.2,5.15 -1.634,1.167 -2.467,1.75 -2.5,1.75 -2.667,0.967 -5.184,1.983 -7.55,3.05 -2.367,1 -4.65,1.983 -6.851,2.95 -2.233,0.967 -4.416,1.833 -6.55,2.6 -2.166,0.767 -4.35,1.367 -6.55,1.801 -6.1,1.1 -11.817,1.767 -17.15,2 -5.367,0.199 -10.383,0 -15.05,-0.601 -4.7,-0.6 -9.066,-1.55 -13.1,-2.85 -4.067,-1.3 -7.817,-2.884 -11.25,-4.75 -3.467,-1.867 -6.667,-3.967 -9.6,-6.3 -2.9,-2.367 -5.567,-4.884 -8,-7.551 -2.434,-2.699 -4.633,-5.517 -6.6,-8.449 -1.967,-2.967 -3.733,-5.967 -5.3,-9 -1.6,-3.101 -3,-6.184 -4.2,-9.25 -1.2,-3.067 -2.25,-6.101 -3.15,-9.101 -0.9,-2.967 -1.667,-5.833 -2.3,-8.6 -0.667,-2.8 -1.2,-5.417 -1.6,-7.851 -0.434,-2.433 -0.767,-4.649 -1,-6.649 -0.233,-2.033 -0.417,-3.767 -0.55,-5.2 -0.1,-1.467 -0.167,-2.583 -0.2,-3.35 l -0.05,-1.2 c -1.954,0.183 -3.871,0.299 -5.75,0.35 -7.433,0.167 -14.283,-0.45 -20.55,-1.85 -6.267,-1.434 -11.967,-3.384 -17.1,-5.851 -5.133,-2.466 -9.717,-5.199 -13.75,-8.199 -4.067,-3.034 -7.583,-6.084 -10.55,-9.15 -3,-3.066 -5.467,-5.866 -7.4,-8.4 -1.966,-2.6 -3.433,-4.666 -4.4,-6.199 -0.967,-1.567 -1.433,-2.367 -1.4,-2.4 -2.067,-6 -3.7,-11.65 -4.9,-16.95 -1.2,-5.333 -2,-10.366 -2.4,-15.1 -0.434,-4.733 -0.517,-9.167 -0.25,-13.3 0.233,-4.167 0.767,-8.051 1.6,-11.65 0.833,-3.634 1.9,-7.017 3.2,-10.15 1.267,-3.133 2.733,-6.033 4.4,-8.699 1.667,-2.667 3.483,-5.117 5.45,-7.351 1.933,-2.233 3.967,-4.283 6.1,-6.149 2.1,-1.834 4.267,-3.5 6.5,-5 2.2,-1.5 4.383,-2.834 6.55,-4 2.2,-1.167 4.333,-2.2 6.4,-3.101 2.033,-0.899 3.983,-1.666 5.85,-2.3 1.833,-0.634 3.533,-1.15 5.1,-1.55 1.533,-0.434 2.867,-0.783 4,-1.05 1.1,-0.233 1.967,-0.4 2.6,-0.5 0.6,-0.134 0.917,-0.184 0.95,-0.15 5.4,-1.033 11.4,-1.033 18,0 6.567,1 13.583,2.866 21.05,5.6 7.433,2.7 15.15,6.084 23.15,10.15 8.033,4.066 16.2,8.616 24.5,13.65 7.72,4.7 15.454,9.675 23.2,14.925 0.874,-0.509 2.023,-1.417 3.45,-2.726 1.567,-1.433 3.383,-3.25 5.45,-5.449 2.033,-2.2 4.25,-4.634 6.649,-7.301 2.367,-2.699 4.817,-5.517 7.351,-8.449 2.533,-2.934 5.066,-5.851 7.6,-8.75 2.5,-2.934 4.917,-5.717 7.25,-8.351 2.334,-2.666 4.5,-5.083 6.5,-7.25 1.967,-2.133 3.7,-3.899 5.2,-5.3 1.434,-1.366 2.6,-2.4 3.5,-3.1 0.833,-0.767 1.467,-1.267 1.9,-1.5 0.399,-0.233 0.616,-0.301 0.649,-0.2 0.066,0.1 0,0.333 -0.2,0.7 -0.199,0.366 -0.449,0.783 -0.75,1.25 -0.3,0.433 -0.616,0.883 -0.949,1.35 -0.334,0.4 -0.601,0.75 -0.801,1.05 l -0.35,0.45 c -0.033,0.033 -0.6,0.95 -1.7,2.75 -1.1,1.767 -2.583,4.15 -4.45,7.15 -1.899,3 -4.033,6.366 -6.399,10.1 -2.367,3.7 -4.834,7.517 -7.4,11.45 -2.566,3.933 -5.066,7.733 -7.5,11.399 -2.467,3.634 -4.733,6.884 -6.8,9.75 -2.033,2.867 -3.733,5.084 -5.1,6.65 -0.941,1.078 -1.632,1.729 -2.075,1.95 5.068,3.594 10.076,7.244 15.024,10.95 7.967,5.933 15.65,11.833 23.051,17.699 7.399,5.834 14.35,11.467 20.85,16.9 6.468,5.407 12.368,10.424 17.702,15.057 z M 89.553,139.52 c -2.439,0.513 -4.889,0.921 -7.35,1.226 -3.033,0.366 -6.05,0.55 -9.05,0.55 -3.034,0 -6.017,-0.25 -8.95,-0.75 -2.967,-0.533 -5.867,-1.334 -8.7,-2.4 -2.833,-1.1 -5.55,-2.533 -8.15,-4.3 -2.6,-1.8 -5.05,-3.967 -7.35,-6.5 -2.333,-2.566 -4.466,-5.566 -6.4,-9 -1.933,-3.434 -3.633,-7.35 -5.1,-11.75 -1.5,-4.4 -2.716,-9.35 -3.65,-14.85 -0.033,-0.034 -0.066,-0.834 -0.1,-2.4 -0.033,-1.6 0.067,-3.733 0.3,-6.4 0.2,-2.666 0.667,-5.633 1.4,-8.899 0.733,-3.266 1.867,-6.601 3.4,-10 1.533,-3.434 3.6,-6.7 6.2,-9.8 2.566,-3.101 5.816,-5.801 9.75,-8.101 3.9,-2.333 8.617,-4.017 14.15,-5.05 5.5,-1.066 11.933,-1.267 19.3,-0.6 0.267,0.033 0.65,0.1 1.15,0.199 0.533,0.101 1.15,0.25 1.85,0.45 0.7,0.167 1.483,0.384 2.35,0.65 0.833,0.267 1.7,0.55 2.6,0.85 0.933,0.334 1.867,0.684 2.8,1.05 0.934,0.334 1.867,0.717 2.8,1.15 3.367,1.467 7.467,3.333 12.3,5.6 4.867,2.233 10.267,4.834 16.2,7.801 5.933,2.899 12.217,6.116 18.85,9.649 4.552,2.414 9.168,4.939 13.85,7.575 2.103,1.186 4.219,2.394 6.35,3.625 1.999,1.154 3.991,2.33 5.975,3.525 m 3.125,-23.025 c 0.098,-0.051 0.198,-0.108 0.3,-0.175 0.552,0.375 1.102,0.75 1.65,1.125 3.145,2.146 6.27,4.313 9.375,6.5 -0.213,0.105 -0.371,0.123 -0.475,0.05 m -90.75,72.425 c 1,-3.184 2.683,-6.475 5.05,-9.875 2.333,-3.434 5.133,-6.934 8.4,-10.5 3.233,-3.566 6.717,-7.1 10.45,-10.6 3.733,-3.533 7.517,-6.934 11.35,-10.2 3.8,-3.267 7.45,-6.283 10.95,-9.05 3.467,-2.767 6.583,-5.184 9.35,-7.25 2.733,-2.066 4.9,-3.684 6.5,-4.851 1.382,-1.029 2.183,-1.604 2.4,-1.725 m -45.2,58.051 c -0.508,0.211 -1.025,0.419 -1.55,0.625 -2.466,0.934 -5.066,1.851 -7.8,2.75 -2.733,0.834 -5.533,1.601 -8.4,2.3 -0.5,0.114 -1,0.223 -1.5,0.325 m 16.3,21.45 c -5.677,1.401 -11.093,2.343 -16.25,2.825 m 16.3,16.399 c 0.367,2.767 0.867,5.317 1.5,7.65 0.633,2.3 1.333,4.384 2.1,6.25 0.733,1.866 1.483,3.517 2.25,4.95 0.733,1.399 1.417,2.566 2.05,3.5 0.6,0.967 1.083,1.684 1.45,2.149 0.367,0.467 0.567,0.7 0.6,0.7 5.567,6.3 11.05,11.4 16.45,15.3 5.367,3.9 10.55,6.817 15.55,8.75 5.033,1.967 9.817,3.184 14.35,3.65 4.5,0.467 8.7,0.434 12.6,-0.1 3.9,-0.567 7.417,-1.4 10.55,-2.5 3.133,-1.101 5.816,-2.25 8.05,-3.45 2.233,-1.233 3.95,-2.283 5.149,-3.15 1.167,-0.866 1.767,-1.3 1.801,-1.3 5.666,-4.634 10.133,-9.25 13.399,-13.85 3.267,-4.634 5.566,-9.2 6.9,-13.7 1.3,-4.5 1.899,-8.834 1.8,-13 -0.134,-4.167 -0.75,-8.101 -1.85,-11.8 -1.067,-3.7 -2.384,-7.067 -3.95,-10.101 -1.566,-3.034 -3.117,-5.649 -4.65,-7.85 -1.566,-2.2 -2.85,-3.884 -3.85,-5.05 -1.066,-1.2 -1.617,-1.817 -1.65,-1.851 l -0.85,-0.85 c -0.601,-0.566 -1.45,-1.283 -2.55,-2.15 -1.134,-0.899 -2.517,-1.866 -4.15,-2.899 -1.667,-1 -3.566,-1.967 -5.7,-2.9 -2.166,-0.934 -4.55,-1.717 -7.149,-2.35 -2.601,-0.634 -5.434,-1.017 -8.5,-1.15 -3.066,-0.134 -6.316,0.1 -9.75,0.7 -3.5,0.566 -7.167,1.6 -11,3.1 l -24.15,14.2 c -8.767,4.167 -17.033,7.283 -24.8,9.35 -0.688,0.182 -1.372,0.356 -2.05,0.525 -0.466,3.624 -0.667,7.049 -0.6,10.275 0.033,3.202 0.249,6.186 0.65,8.952 z"
   id="path5"
   style="fill:none;stroke:#000000;stroke-width:2;stroke-miterlimit:10" />
</svg>