<?xml version="1.0" ?>
<svg xmlns:xlink="http://www.w3.org/1999/xlink" 
	xmlns="http://www.w3.org/2000/svg"
	width="1000px" 
    height="1000px" 
    ><style type="text/css">
<![CDATA[

text {
	/*font-size: 10px;*/
	color: black;
}

path {
	stroke:#000000;
	stroke-width:1;
	/*stroke-linecap:square;*/
}

line {
	stroke: #000000;
	stroke-width:1;
	stroke-linecap:square;
}

]]>
</style><rect fill="rgb(255,255,255)" stroke="#000000" stroke-width="0.5" vector-effect="non-scaling-stroke" x="0" y="0" width="500" height="100" /><polygon fill="rgb(228,228,228)" stroke="#333333" points="0,0 0,93.337749597804 3.3112582781457,88.941989211697 6.6225165562914,89.973502413173 9.9337748344371,91.005015614649 13.245033112583,91.113844989117 16.556291390728,91.648528437589 19.867549668874,93.90555502981 23.17880794702,92.590139112331 26.490066225166,91.913504305858 29.801324503311,89.722721680704 33.112582781457,91.009747326583 36.423841059603,90.560234692912 39.735099337748,91.378820857386 43.046357615894,89.490867795969 46.35761589404,88.781111005962 49.668874172185,89.074477145831 52.980132450331,88.880476956563 56.291390728477,88.97511119523 59.602649006623,88.478281442226 62.913907284768,91.023942462383 66.225165562914,89.60442888237 69.53642384106,87.46096337655 72.847682119205,88.076085927889 76.158940397351,83.642471846314 79.470198675497,82.899593072774 82.781456953642,77.003880003785 86.092715231788,80.623639632819 89.403973509934,82.667739188038 92.715231788079,84.735497302924 96.026490066225,85.719693385067 99.337748344371,86.216523138071 102.64900662252,85.080912274061 105.96026490066,83.221349484243 109.27152317881,86.415255039273 112.58278145695,83.576227879247 115.8940397351,84.101447903852 119.20529801325,81.674079682029 122.51655629139,83.737106084982 125.82781456954,84.489448282389 129.13907284768,79.809785180278 132.45033112583,81.806567616164 135.76158940397,76.630074761049 139.07284768212,77.704173369925 142.38410596026,74.789438818965 145.69536423841,74.425097000095 149.00662251656,74.458218983628 152.3178807947,71.321093971799 155.62913907285,72.82104665468 158.94039735099,67.843285700767 162.25165562914,65.775527585881 165.56291390728,67.909529667834 168.87417218543,69.002555124444 172.18543046358,68.264408062837 175.49668874172,69.646067947383 178.80794701987,73.966120942557 182.11920529801,74.406170152361 185.43046357616,66.537333207154 188.7417218543,72.574997634144 192.05298013245,60.575376171099 195.3642384106,62.714109964985 198.67549668874,59.155862591085 201.98675496689,59.430301883221 205.29801324503,55.905176492855 208.60927152318,53.435222863632 211.92052980132,55.668590896186 215.23178807947,54.65127283051 218.54304635762,57.977666319674 221.85430463576,59.468155578688 225.16556291391,56.525030756128 228.47682119205,59.548594681556 231.7880794702,56.605469858995 235.09933774834,57.575470805337 238.41059602649,55.190687990915 241.72185430464,54.589760575376 245.03311258278,55.114980599981 248.34437086093,55.502980978518 251.65562913907,59.321472508754 254.96688741722,61.133718179237 258.27814569536,67.261285132961 261.58940397351,75.253146588436 264.90066225166,76.256269518312 268.2119205298,81.711933377496 271.52317880795,82.88066622504 274.83443708609,74.846219362165 278.14569536424,72.418851140343 281.45695364238,67.701334342765 284.76821192053,68.818018359042 288.07947019868,62.08952398978 291.39072847682,59.66688747989 294.70198675497,63.068988359989 298.01324503311,48.457461909719 301.32450331126,56.141762089524 304.6357615894,56.06605469859 307.94701986755,56.40200624586 311.2582781457,54.62288255891 314.56953642384,56.974543389798 317.88079470199,54.424150657708 321.19205298013,56.747421216996 324.50331125828,52.947856534494 327.81456953642,53.293271505631 331.12582781457,52.928929686761 334.43708609272,48.940096526923 337.74834437086,50.667171382606 341.05960264901,43.744676824075 344.37086092715,25.74997634144 347.6821192053,31.399640389893 350.99337748344,25.262610012302 354.30463576159,20.947288729062 357.61589403974,16.721869972556 360.92715231788,24.060755181225 364.23841059603,22.792656383079 367.54966887417,15.647771363679 370.86092715232,20.578215198259 374.17218543046,5.9808838837892 377.48344370861,6.1938109207911 380.79470198675,15.590990820479 384.1059602649,5.2096148386486 387.41721854305,8.961862401817 390.72847682119,4.3910286741743 394.03973509934,0 397.35099337748,3.3547837607646 400.66225165563,8.4508375130122 403.97350993377,5.6307372007192 407.28476821192,5.4982492665847 410.59602649007,8.2568373237437 413.90728476821,15.510551717611 417.21854304636,12.165231380714 420.5298013245,14.833916911138 423.84105960265,10.901864294502 427.15231788079,11.876596952778 430.46357615894,7.7268855872054 433.77483443709,16.78338222769 437.08609271523,19.579823980316 440.39735099338,17.989968770701 443.70860927152,12.950695561654 447.01986754967,15.557868836945 450.33112582781,15.406454055077 453.64238410596,16.073625437683 456.95364238411,12.718841676919 460.26490066225,14.616258162203 463.5761589404,32.237153402101 466.88741721854,20.32743446579 470.19867549669,7.646446484338 473.50993377483,6.1654206491909 476.82119205298,4.750638781111 480.13245033113,4.5613703037759 483.44370860927,7.9303492003407 486.75496688742,10.528059051765 490.06622516556,14.062647865998 493.37748344371,12.307182738715 496.68874172185,24.145925996025 500,79.365004258541 500,100 0,100 0,0 " /><text style="color:#ffffff;font-size:20px;" x="513.31125827815" y="20">Animalia</text>
<rect fill="rgb(255,255,255)" stroke="#000000" stroke-width="0.5" vector-effect="non-scaling-stroke" x="0" y="100" width="500" height="100" /><polygon fill="rgb(228,228,228)" stroke="#333333" points="0,100 0,198.09220985692 3.3112582781457,185.13513513514 6.6225165562914,183.70429252782 9.9337748344371,173.76788553259 13.245033112583,178.21939586645 16.556291390728,174.40381558029 19.867549668874,198.48966613672 23.17880794702,187.75834658188 26.490066225166,179.41176470588 29.801324503311,184.89666136725 33.112582781457,182.9093799682 36.423841059603,178.45786963434 39.735099337748,184.10174880763 43.046357615894,176.55007949126 46.35761589404,178.93481717011 49.668874172185,174.00635930048 52.980132450331,171.30365659777 56.291390728477,171.22416534181 59.602649006623,170.90620031797 62.913907284768,172.33704292528 66.225165562914,170.74721780604 69.53642384106,171.70111287758 72.847682119205,172.4960254372 76.158940397351,174.8012718601 79.470198675497,176.15262321145 82.781456953642,117.72655007949 86.092715231788,151.6693163752 89.403973509934,177.18600953895 92.715231788079,187.67885532591 96.026490066225,197.2972972973 99.337748344371,193.9586645469 102.64900662252,192.84578696343 105.96026490066,194.91255961844 109.27152317881,193.16375198728 112.58278145695,193.72019077901 115.8940397351,193.56120826709 119.20529801325,193.87917329094 122.51655629139,194.91255961844 125.82781456954,193.32273449921 129.13907284768,189.26868044515 132.45033112583,185.85055643879 135.76158940397,189.18918918919 139.07284768212,157.79014308426 142.38410596026,151.27186009539 145.69536423841,163.03656597774 149.00662251656,163.7519872814 152.3178807947,170.90620031797 155.62913907285,176.70906200318 158.94039735099,161.92368839428 162.25165562914,162.16216216216 165.56291390728,159.3799682035 168.87417218543,167.24960254372 172.18543046358,169.1573926868 175.49668874172,167.40858505564 178.80794701987,169.87281399046 182.11920529801,164.38791732909 185.43046357616,167.0906200318 188.7417218543,181.8759936407 192.05298013245,168.60095389507 195.3642384106,171.22416534181 198.67549668874,164.7853736089 201.98675496689,156.20031796502 205.29801324503,162.55961844197 208.60927152318,159.85691573927 211.92052980132,144.11764705882 215.23178807947,162.00317965024 218.54304635762,156.12082670906 221.85430463576,159.45945945946 225.16556291391,161.0492845787 228.47682119205,159.53895071542 231.7880794702,165.10333863275 235.09933774834,171.4626391097 238.41059602649,165.73926868045 241.72185430464,147.77424483307 245.03311258278,152.54372019078 248.34437086093,144.75357710652 251.65562913907,164.14944356121 254.96688741722,139.90461049285 258.27814569536,179.57074721781 261.58940397351,179.96820349762 264.90066225166,178.77583465819 268.2119205298,188.79173290938 271.52317880795,193.64069952305 274.83443708609,182.03497615262 278.14569536424,176.70906200318 281.45695364238,183.14785373609 284.76821192053,185.93004769475 288.07947019868,171.38314785374 291.39072847682,182.43243243243 294.70198675497,178.13990461049 298.01324503311,159.3799682035 301.32450331126,182.59141494436 304.6357615894,168.20349761526 307.94701986755,174.48330683625 311.2582781457,160.01589825119 314.56953642384,159.3799682035 317.88079470199,158.98251192369 321.19205298013,164.62639109698 324.50331125828,162.95707472178 327.81456953642,164.7853736089 331.12582781457,153.10015898251 334.43708609272,164.7853736089 337.74834437086,163.51351351351 341.05960264901,171.4626391097 344.37086092715,154.76947535771 347.6821192053,166.21621621622 350.99337748344,150.31796502385 354.30463576159,151.43084260731 357.61589403974,144.03815580286 360.92715231788,151.35135135135 364.23841059603,150.71542130366 367.54966887417,114.46740858506 370.86092715232,146.82034976153 374.17218543046,134.18124006359 377.48344370861,121.86009538951 380.79470198675,145.07154213037 384.1059602649,134.73767885533 387.41721854305,151.19236883943 390.72847682119,130.52464228935 394.03973509934,135.37360890302 397.35099337748,122.17806041335 400.66225165563,134.73767885533 403.97350993377,137.51987281399 407.28476821192,135.2146263911 410.59602649007,118.91891891892 413.90728476821,142.44833068362 417.21854304636,136.8839427663 420.5298013245,144.51510333863 423.84105960265,125.75516693164 427.15231788079,120.19077901431 430.46357615894,111.28775834658 433.77483443709,140.14308426073 437.08609271523,139.26868044515 440.39735099338,141.2559618442 443.70860927152,125.11923688394 447.01986754967,141.41494435612 450.33112582781,138.31478537361 453.64238410596,117.96502384738 456.95364238411,109.53895071542 460.26490066225,132.67090620032 463.5761589404,144.43561208267 466.88741721854,153.25914149444 470.19867549669,131.95548489666 473.50993377483,118.52146263911 476.82119205298,119.47535771065 480.13245033113,129.80922098569 483.44370860927,100 486.75496688742,132.98887122417 490.06622516556,137.44038155803 493.37748344371,124.1653418124 496.68874172185,135.85055643879 500,186.2480127186 500,200 0,200 0,100 " /><text style="color:#ffffff;font-size:20px;" x="513.31125827815" y="120">Gastropoda</text>
<rect fill="rgb(255,255,255)" stroke="#000000" stroke-width="0.5" vector-effect="non-scaling-stroke" x="0" y="200" width="500" height="100" /><polygon fill="rgb(228,228,228)" stroke="#333333" points="0,200 0,299.0099009901 3.3112582781457,297.9297929793 6.6225165562914,297.299729973 9.9337748344371,298.2898289829 13.245033112583,297.5697569757 16.556291390728,296.399639964 19.867549668874,293.78937893789 23.17880794702,296.1296129613 26.490066225166,286.49864986499 29.801324503311,287.57875787579 33.112582781457,297.6597659766 36.423841059603,294.86948694869 39.735099337748,292.88928892889 43.046357615894,288.56885688569 46.35761589404,295.5895589559 49.668874172185,283.43834383438 52.980132450331,285.05850585059 56.291390728477,287.12871287129 59.602649006623,286.67866786679 62.913907284768,299.3699369937 66.225165562914,294.14941494149 69.53642384106,282.80828082808 72.847682119205,296.8496849685 76.158940397351,272.81728172817 79.470198675497,284.69846984698 82.781456953642,281.54815481548 86.092715231788,283.52835283528 89.403973509934,273.98739873987 92.715231788079,290.27902790279 96.026490066225,291.80918091809 99.337748344371,296.1296129613 102.64900662252,287.21872187219 105.96026490066,297.0297029703 109.27152317881,292.97929792979 112.58278145695,292.97929792979 115.8940397351,297.6597659766 119.20529801325,293.15931593159 122.51655629139,292.88928892889 125.82781456954,288.38883888389 129.13907284768,283.97839783978 132.45033112583,296.9396939694 135.76158940397,296.399639964 139.07284768212,282.35823582358 142.38410596026,284.87848784878 145.69536423841,285.59855985599 149.00662251656,291.17911791179 152.3178807947,283.97839783978 155.62913907285,284.42844284428 158.94039735099,297.299729973 162.25165562914,289.55895589559 165.56291390728,290.45904590459 168.87417218543,284.15841584158 172.18543046358,291.08910891089 175.49668874172,295.3195319532 178.80794701987,293.06930693069 182.11920529801,292.61926192619 185.43046357616,291.08910891089 188.7417218543,297.3897389739 192.05298013245,291.71917191719 195.3642384106,293.33933393339 198.67549668874,287.93879387939 201.98675496689,288.83888388839 205.29801324503,294.14941494149 208.60927152318,291.62916291629 211.92052980132,292.61926192619 215.23178807947,286.85868586859 218.54304635762,296.2196219622 221.85430463576,295.2295229523 225.16556291391,289.73897389739 228.47682119205,289.55895589559 231.7880794702,288.11881188119 235.09933774834,287.84878487849 238.41059602649,288.92889288929 241.72185430464,285.59855985599 245.03311258278,281.45814581458 248.34437086093,282.53825382538 251.65562913907,255.62556255626 254.96688741722,254.18541854185 258.27814569536,254.63546354635 261.58940397351,277.04770477048 264.90066225166,276.14761476148 268.2119205298,277.85778577858 271.52317880795,279.20792079208 274.83443708609,255.44554455446 278.14569536424,272.90729072907 281.45695364238,278.03780378038 284.76821192053,286.94869486949 288.07947019868,272.00720072007 291.39072847682,292.61926192619 294.70198675497,281.99819981998 298.01324503311,266.42664266427 301.32450331126,266.42664266427 304.6357615894,290.63906390639 307.94701986755,290.00900090009 311.2582781457,269.75697569757 314.56953642384,270.74707470747 317.88079470199,283.34833483348 321.19205298013,293.60936093609 324.50331125828,278.48784878488 327.81456953642,259.04590459046 331.12582781457,281.45814581458 334.43708609272,279.74797479748 337.74834437086,289.19891989199 341.05960264901,284.42844284428 344.37086092715,286.04860486049 347.6821192053,288.83888388839 350.99337748344,278.03780378038 354.30463576159,281.90819081908 357.61589403974,283.07830783078 360.92715231788,259.85598559856 364.23841059603,285.68856885689 367.54966887417,283.88838883888 370.86092715232,279.56795679568 374.17218543046,278.66786678668 377.48344370861,268.76687668767 380.79470198675,264.89648964896 384.1059602649,268.31683168317 387.41721854305,265.52655265527 390.72847682119,278.12781278128 394.03973509934,266.60666066607 397.35099337748,264.80648064806 400.66225165563,255.26552655266 403.97350993377,256.97569756976 407.28476821192,249.77497749775 410.59602649007,246.35463546355 413.90728476821,269.75697569757 417.21854304636,251.84518451845 420.5298013245,204.2304230423 423.84105960265,252.74527452745 427.15231788079,262.46624662466 430.46357615894,228.44284428443 433.77483443709,218.81188118812 437.08609271523,260.57605760576 440.39735099338,276.50765076508 443.70860927152,273.62736273627 447.01986754967,265.61656165617 450.33112582781,233.39333933393 453.64238410596,233.57335733573 456.95364238411,251.75517551755 460.26490066225,244.64446444644 463.5761589404,223.49234923492 466.88741721854,256.79567956796 470.19867549669,241.49414941494 473.50993377483,237.98379837984 476.82119205298,217.10171017102 480.13245033113,231.68316831683 483.44370860927,221.06210621062 486.75496688742,215.03150315032 490.06622516556,200 493.37748344371,215.12151215122 496.68874172185,234.47344734473 500,279.20792079208 500,300 0,300 0,200 " /><text style="color:#ffffff;font-size:20px;" x="513.31125827815" y="220">Araneae</text>
<rect fill="rgb(255,255,255)" stroke="#000000" stroke-width="0.5" vector-effect="non-scaling-stroke" x="0" y="300" width="500" height="100" /><polygon fill="rgb(228,228,228)" stroke="#333333" points="0,300 0,398.67219917012 3.3112582781457,397.34439834025 6.6225165562914,398.34024896266 9.9337748344371,399.08713692946 13.245033112583,398.21576763485 16.556291390728,397.30290456432 19.867549668874,398.79668049793 23.17880794702,397.75933609959 26.490066225166,398.87966804979 29.801324503311,396.39004149378 33.112582781457,397.42738589212 36.423841059603,398.25726141079 39.735099337748,398.83817427386 43.046357615894,397.63485477178 46.35761589404,396.59751037344 49.668874172185,398.63070539419 52.980132450331,398.63070539419 56.291390728477,397.63485477178 59.602649006623,397.51037344398 62.913907284768,397.51037344398 66.225165562914,396.09958506224 69.53642384106,399.04564315353 72.847682119205,397.09543568465 76.158940397351,395.76763485477 79.470198675497,397.13692946058 82.781456953642,397.92531120332 86.092715231788,396.47302904564 89.403973509934,398.29875518672 92.715231788079,397.55186721992 96.026490066225,396.97095435685 99.337748344371,395.0622406639 102.64900662252,396.80497925311 105.96026490066,395.3112033195 109.27152317881,395.14522821577 112.58278145695,393.94190871369 115.8940397351,393.19502074689 119.20529801325,389.12863070539 122.51655629139,392.15767634855 125.82781456954,389.6265560166 129.13907284768,385.4356846473 132.45033112583,386.26556016598 135.76158940397,384.19087136929 139.07284768212,381.28630705394 142.38410596026,384.60580912863 145.69536423841,389.54356846473 149.00662251656,386.76348547718 152.3178807947,371.99170124481 155.62913907285,376.01659751037 158.94039735099,373.11203319502 162.25165562914,361.86721991701 165.56291390728,376.51452282158 168.87417218543,363.23651452282 172.18543046358,371.99170124481 175.49668874172,376.59751037344 178.80794701987,386.97095435685 182.11920529801,379.7510373444 185.43046357616,376.30705394191 188.7417218543,378.75518672199 192.05298013245,374.02489626556 195.3642384106,378.38174273859 198.67549668874,377.46887966805 201.98675496689,372.82157676349 205.29801324503,371.24481327801 208.60927152318,372.90456431535 211.92052980132,372.90456431535 215.23178807947,369.83402489627 218.54304635762,373.60995850622 221.85430463576,383.19502074689 225.16556291391,382.11618257261 228.47682119205,381.53526970954 231.7880794702,377.13692946058 235.09933774834,377.01244813278 238.41059602649,374.85477178423 241.72185430464,376.18257261411 245.03311258278,379.7510373444 248.34437086093,379.00414937759 251.65562913907,382.40663900415 254.96688741722,386.18257261411 258.27814569536,386.05809128631 261.58940397351,390.7468879668 264.90066225166,387.75933609959 268.2119205298,393.11203319502 271.52317880795,390.2489626556 274.83443708609,389.33609958506 278.14569536424,390.622406639 281.45695364238,385.3112033195 284.76821192053,388.75518672199 288.07947019868,377.84232365145 291.39072847682,376.55601659751 294.70198675497,387.46887966805 298.01324503311,382.73858921162 301.32450331126,378.92116182573 304.6357615894,383.90041493776 307.94701986755,377.88381742739 311.2582781457,384.35684647303 314.56953642384,383.77593360996 317.88079470199,383.44398340249 321.19205298013,382.69709543568 324.50331125828,382.69709543568 327.81456953642,386.14107883817 331.12582781457,387.34439834025 334.43708609272,378.96265560166 337.74834437086,381.49377593361 341.05960264901,377.46887966805 344.37086092715,337.21991701245 347.6821192053,345.6846473029 350.99337748344,342.15767634855 354.30463576159,351.57676348548 357.61589403974,339.6265560166 360.92715231788,352.07468879668 364.23841059603,342.40663900415 367.54966887417,348.79668049793 370.86092715232,351.28630705394 374.17218543046,344.19087136929 377.48344370861,328.71369294606 380.79470198675,344.27385892116 384.1059602649,345.4356846473 387.41721854305,337.21991701245 390.72847682119,348.29875518672 394.03973509934,338.17427385892 397.35099337748,324.97925311203 400.66225165563,354.60580912863 403.97350993377,341.24481327801 407.28476821192,341.03734439834 410.59602649007,306.68049792531 413.90728476821,340.622406639 417.21854304636,338.75518672199 420.5298013245,347.80082987552 423.84105960265,343.19502074689 427.15231788079,342.24066390041 430.46357615894,325.14522821577 433.77483443709,333.07053941909 437.08609271523,342.28215767635 440.39735099338,334.6887966805 443.70860927152,319.08713692946 447.01986754967,329.29460580913 450.33112582781,300 453.64238410596,345.35269709544 456.95364238411,306.22406639004 460.26490066225,326.05809128631 463.5761589404,336.68049792531 466.88741721854,351.16182572614 470.19867549669,332.48962655602 473.50993377483,318.29875518672 476.82119205298,344.4398340249 480.13245033113,321.49377593361 483.44370860927,327.59336099585 486.75496688742,340.04149377593 490.06622516556,333.15352697095 493.37748344371,316.84647302905 496.68874172185,330.66390041494 500,384.64730290456 500,400 0,400 0,300 " /><text style="color:#ffffff;font-size:20px;" x="513.31125827815" y="320">Hymenoptera</text>
<rect fill="rgb(255,255,255)" stroke="#000000" stroke-width="0.5" vector-effect="non-scaling-stroke" x="0" y="400" width="500" height="100" /><polygon fill="rgb(228,228,228)" stroke="#333333" points="0,400 3.3112582781457,496.95431472081 6.6225165562914,499.66159052453 9.9337748344371,499.66159052453 13.245033112583,499.66159052453 23.17880794702,499.4923857868 26.490066225166,499.32318104907 29.801324503311,490.01692047377 33.112582781457,496.61590524535 36.423841059603,499.4923857868 39.735099337748,498.47715736041 43.046357615894,499.15397631134 46.35761589404,499.15397631134 52.980132450331,494.92385786802 56.291390728477,499.4923857868 59.602649006623,498.9847715736 62.913907284768,498.81556683587 66.225165562914,499.4923857868 69.53642384106,498.13874788494 72.847682119205,498.9847715736 76.158940397351,498.47715736041 79.470198675497,497.29272419628 82.781456953642,494.92385786802 86.092715231788,497.12351945854 89.403973509934,499.66159052453 92.715231788079,496.61590524535 96.026490066225,486.80203045685 99.337748344371,496.44670050761 102.64900662252,498.30795262267 105.96026490066,496.27749576988 109.27152317881,494.41624365482 112.58278145695,489.50930626058 115.8940397351,495.76988155668 119.20529801325,497.46192893401 122.51655629139,499.4923857868 125.82781456954,498.81556683587 129.13907284768,499.15397631134 132.45033112583,497.46192893401 135.76158940397,491.87817258883 139.07284768212,493.40101522843 142.38410596026,496.95431472081 145.69536423841,495.60067681895 149.00662251656,497.46192893401 152.3178807947,497.29272419628 155.62913907285,494.92385786802 158.94039735099,493.57021996616 162.25165562914,488.66328257191 165.56291390728,488.15566835871 168.87417218543,492.89340101523 172.18543046358,483.58714043993 175.49668874172,487.81725888325 178.80794701987,491.2013536379 182.11920529801,488.49407783418 185.43046357616,487.64805414552 188.7417218543,484.94077834179 192.05298013245,475.97292724196 195.3642384106,476.64974619289 198.67549668874,484.60236886633 201.98675496689,482.4027072758 205.29801324503,470.05076142132 208.60927152318,477.49576988156 211.92052980132,469.54314720812 215.23178807947,458.71404399323 218.54304635762,469.37394247039 221.85430463576,474.45008460237 225.16556291391,464.12859560068 228.47682119205,452.62267343486 231.7880794702,476.64974619289 235.09933774834,475.29610829103 238.41059602649,483.4179357022 241.72185430464,468.18950930626 245.03311258278,475.80372250423 248.34437086093,477.15736040609 251.65562913907,484.77157360406 254.96688741722,480.20304568528 258.27814569536,488.32487309645 261.58940397351,486.63282571912 264.90066225166,496.27749576988 268.2119205298,489.50930626058 271.52317880795,490.18612521151 274.83443708609,486.29441624365 278.14569536424,490.6937394247 281.45695364238,483.58714043993 284.76821192053,480.03384094755 288.07947019868,459.89847715736 291.39072847682,457.5296108291 294.70198675497,472.92724196277 298.01324503311,456.85279187817 301.32450331126,469.71235194585 304.6357615894,456.85279187817 307.94701986755,462.09813874788 311.2582781457,463.79018612521 314.56953642384,460.91370558376 317.88079470199,462.26734348562 321.19205298013,456.34517766497 324.50331125828,475.1269035533 327.81456953642,450.42301184433 331.12582781457,449.57698815567 334.43708609272,435.53299492386 337.74834437086,446.19289340102 341.05960264901,451.94585448393 344.37086092715,458.88324873096 347.6821192053,455.32994923858 350.99337748344,460.91370558376 354.30463576159,418.78172588832 357.61589403974,417.42808798646 360.92715231788,400 364.23841059603,422.16582064298 367.54966887417,428.76480541455 370.86092715232,428.42639593909 374.17218543046,431.30287648054 377.48344370861,434.34856175973 380.79470198675,424.19627749577 384.1059602649,421.65820642978 387.41721854305,415.73604060914 390.72847682119,410.49069373942 394.03973509934,424.3654822335 397.35099337748,428.08798646362 400.66225165563,424.02707275804 403.97350993377,423.35025380711 407.28476821192,433.84094754653 410.59602649007,445.51607445008 413.90728476821,444.67005076142 417.21854304636,453.97631133672 420.5298013245,439.76311336717 423.84105960265,446.70050761421 427.15231788079,442.4703891709 430.46357615894,454.65313028765 433.77483443709,444.33164128596 437.08609271523,459.72927241963 440.39735099338,456.34517766497 443.70860927152,448.22335025381 447.01986754967,455.16074450085 450.33112582781,461.42131979695 453.64238410596,457.5296108291 456.95364238411,455.16074450085 460.26490066225,467.68189509306 463.5761589404,473.26565143824 466.88741721854,462.43654822335 470.19867549669,450.42301184433 473.50993377483,456.85279187817 476.82119205298,459.0524534687 480.13245033113,449.57698815567 483.44370860927,453.80710659898 486.75496688742,444.83925549915 490.06622516556,447.88494077834 493.37748344371,448.73096446701 496.68874172185,451.26903553299 500,488.66328257191 500,500 0,500 0,400 " /><text style="color:#ffffff;font-size:20px;" x="513.31125827815" y="420">Nematoda</text>
<rect fill="rgb(255,255,255)" stroke="#000000" stroke-width="0.5" vector-effect="non-scaling-stroke" x="0" y="500" width="500" height="100" /><polygon fill="rgb(228,228,228)" stroke="#333333" points="0,500 0,597.26775956284 3.3112582781457,599.72677595628 6.6225165562914,599.18032786885 9.9337748344371,599.72677595628 13.245033112583,599.72677595628 16.556291390728,599.45355191257 19.867549668874,595.08196721311 23.17880794702,548.90710382514 26.490066225166,557.37704918033 29.801324503311,540.43715846995 33.112582781457,536.61202185792 36.423841059603,527.5956284153 39.735099337748,549.45355191257 43.046357615894,516.12021857923 46.35761589404,544.8087431694 49.668874172185,531.42076502732 52.980132450331,557.65027322404 56.291390728477,562.84153005464 59.602649006623,551.36612021858 62.913907284768,545.62841530055 66.225165562914,544.53551912568 69.53642384106,561.74863387978 72.847682119205,556.8306010929 76.158940397351,542.62295081967 79.470198675497,556.01092896175 82.781456953642,553.55191256831 86.092715231788,534.97267759563 89.403973509934,504.09836065574 92.715231788079,524.59016393443 96.026490066225,539.07103825137 99.337748344371,533.06010928962 102.64900662252,546.17486338798 105.96026490066,543.44262295082 109.27152317881,534.69945355191 112.58278145695,541.25683060109 115.8940397351,539.34426229508 119.20529801325,533.06010928962 122.51655629139,516.39344262295 125.82781456954,553.00546448087 129.13907284768,514.75409836066 132.45033112583,556.28415300546 135.76158940397,500 139.07284768212,553.82513661202 142.38410596026,588.52459016393 145.69536423841,582.7868852459 149.00662251656,568.30601092896 152.3178807947,572.4043715847 155.62913907285,564.75409836066 158.94039735099,526.77595628415 162.25165562914,540.71038251366 165.56291390728,551.36612021858 168.87417218543,564.75409836066 172.18543046358,538.25136612022 175.49668874172,525.68306010929 178.80794701987,535.51912568306 182.11920529801,522.95081967213 185.43046357616,533.06010928962 188.7417218543,537.9781420765 192.05298013245,524.86338797814 195.3642384106,521.85792349727 198.67549668874,559.83606557377 201.98675496689,555.46448087432 205.29801324503,543.98907103825 208.60927152318,554.64480874317 211.92052980132,553.55191256831 215.23178807947,523.77049180328 218.54304635762,542.62295081967 221.85430463576,538.52459016393 225.16556291391,541.25683060109 228.47682119205,560.92896174863 231.7880794702,559.28961748634 235.09933774834,571.58469945355 238.41059602649,574.04371584699 241.72185430464,557.65027322404 245.03311258278,569.39890710383 248.34437086093,568.85245901639 251.65562913907,563.38797814208 254.96688741722,553.82513661202 258.27814569536,577.5956284153 261.58940397351,580.05464480874 264.90066225166,575.95628415301 268.2119205298,585.51912568306 271.52317880795,567.48633879781 274.83443708609,571.31147540984 278.14569536424,574.31693989071 281.45695364238,572.4043715847 284.76821192053,570.21857923497 288.07947019868,573.49726775956 291.39072847682,566.12021857923 294.70198675497,574.31693989071 298.01324503311,548.63387978142 301.32450331126,575.40983606557 304.6357615894,569.67213114754 307.94701986755,570.7650273224 311.2582781457,574.59016393443 314.56953642384,581.69398907104 317.88079470199,577.04918032787 321.19205298013,581.42076502732 324.50331125828,571.58469945355 327.81456953642,575.40983606557 331.12582781457,576.77595628415 334.43708609272,585.79234972678 337.74834437086,560.10928961749 341.05960264901,579.78142076503 344.37086092715,577.04918032787 347.6821192053,574.59016393443 350.99337748344,575.40983606557 354.30463576159,580.32786885246 357.61589403974,584.69945355191 360.92715231788,585.24590163934 364.23841059603,578.68852459016 367.54966887417,576.50273224044 370.86092715232,575.13661202186 374.17218543046,573.49726775956 377.48344370861,587.70491803279 380.79470198675,565.5737704918 384.1059602649,577.86885245902 387.41721854305,577.86885245902 390.72847682119,573.22404371585 394.03973509934,580.05464480874 397.35099337748,578.41530054645 400.66225165563,573.49726775956 403.97350993377,574.04371584699 407.28476821192,573.49726775956 410.59602649007,570.7650273224 413.90728476821,582.7868852459 417.21854304636,585.79234972678 420.5298013245,577.04918032787 423.84105960265,572.4043715847 427.15231788079,586.61202185792 430.46357615894,583.33333333333 433.77483443709,581.96721311475 437.08609271523,584.97267759563 440.39735099338,583.87978142077 443.70860927152,575.13661202186 447.01986754967,578.14207650273 450.33112582781,580.32786885246 453.64238410596,582.24043715847 456.95364238411,569.94535519126 460.26490066225,590.98360655738 463.5761589404,590.16393442623 466.88741721854,585.79234972678 470.19867549669,579.2349726776 473.50993377483,581.42076502732 476.82119205298,579.78142076503 480.13245033113,569.67213114754 483.44370860927,572.95081967213 486.75496688742,574.86338797814 490.06622516556,568.57923497268 493.37748344371,547.54098360656 496.68874172185,574.04371584699 500,595.08196721311 500,600 0,600 0,500 " /><text style="color:#ffffff;font-size:20px;" x="513.31125827815" y="520">Aves</text>
<line  x1="0" y1="0" x2="0" y2="600" vector-effect="non-scaling-stroke"  stroke-width="0.5" /><text style="color:#ffffff;font-size:20px;" x="0" y="620">1864</text>
<line  x1="-46.35761589404" y1="0" x2="-46.35761589404" y2="600" vector-effect="non-scaling-stroke"  stroke-width="0.5" /><text style="color:#ffffff;font-size:20px;" x="-46.35761589404" y="620">1850</text>
<line  x1="119.20529801325" y1="0" x2="119.20529801325" y2="600" vector-effect="non-scaling-stroke"  stroke-width="0.5" /><text style="color:#ffffff;font-size:20px;" x="119.20529801325" y="620">1900</text>
<line  x1="284.76821192053" y1="0" x2="284.76821192053" y2="600" vector-effect="non-scaling-stroke"  stroke-width="0.5" /><text style="color:#ffffff;font-size:20px;" x="284.76821192053" y="620">1950</text>
<line  x1="450.33112582781" y1="0" x2="450.33112582781" y2="600" vector-effect="non-scaling-stroke"  stroke-width="0.5" /><text style="color:#ffffff;font-size:20px;" x="450.33112582781" y="620">2000</text>
<line  x1="195.3642384106" y1="0" x2="195.3642384106" y2="600" vector-effect="non-scaling-stroke"  stroke-width="0.5" /><text style="color:#ffffff;font-size:20px;" x="195.3642384106" y="620">1923</text>
<line  x1="500" y1="0" x2="500" y2="600" vector-effect="non-scaling-stroke"  stroke-width="0.5" /><text style="color:#ffffff;font-size:20px;" x="500" y="620">2015</text>
</svg>